<svg width="150" height="150" viewBox="0 0 150 150" fill="none" xmlns="http://www.w3.org/2000/svg">
  <path d="M107.5 45C107.5 35.335 99.665 27.5 90 27.5C82.5 27.5 76.25 32.5 74.25 39.5C70.5 35 65 32.5 59 32.5C48.23 32.5 39.5 41.23 39.5 52C39.5 54.5 39.95 56.875 40.75 59.065L40 59.5V130H130V130C130 130 110 130 110 130V70C110 62.5 112.5 57.5 117.5 52.5C113.75 48.125 107.5 45 107.5 45Z" fill="#10B981" stroke="#10B981" stroke-width="3" stroke-linecap="round" stroke-linejoin="round"/>
  <path d="M90 27.5C82.5 27.5 76.25 32.5 74.25 39.5C78 45 82.5 50 90 52.5C95 50 100 47.5 103.75 42.5C100 32.5 95 27.5 90 27.5Z" fill="white"/>
  <path d="M59 32.5C48.23 32.5 39.5 41.23 39.5 52C39.5 54.5 39.95 56.875 40.75 59.065C45 62.5 50 65 57.5 65C63 62.5 67.5 57.5 70 52.5C70 42.5 65 32.5 59 32.5Z" fill="white"/>
</svg>
